# xmcd
#
# Track frame offsets: 
#        150
#        15330
#        31640
#        46994
#        65281
#        79077
#        88409
#        101046
#        116955
#        138549
#        159817
#        175865
#        192413
#        210097
#        226232
#        248808
#        269595
#        290312
#        309591
#
# Disc length: 4438 seconds
#
# Revision: 2
# Processed by: cddbd v1.5.2PL0 Copyright (c) Steve Scherf et al.
# Submitted via: ExactAudioCopy v1.2
#
DISCID=fb115413
DTITLE=Bill and Gloria Gaither and Homecoming Friends - South African Home
DTITLE=coming
DYEAR=2007
DGENRE=Gospel
TTITLE0=Full Alive - (With Joy Gardner and Lauren Talley)
TTITLE1=My Lord And I - (With Gaither Vocal Band)
TTITLE2=Bless That Wonderful Name - (With Jessy Dixon and Reggie Smith)
TTITLE3=One More River - (With Jessy Dixon and Woody Wright)
TTITLE4=Just Tell Them When You Saw Me I Was On My Way - (With Sue Dod
TTITLE4=ge)
TTITLE5=Keep On The Firing Line - (With Anthony Burger)
TTITLE6=I'll Put On A Crown And Walk Around - (With Albert E. Brumley)
TTITLE7=Umbrella - (With The Isaacs)
TTITLE8=Midnight Cry - (With Ivan Parker)
TTITLE9=The River - (With Kim Hopper)
TTITLE10=When God Dips His Love In My Heart - (With Stephen Hill and Wes
TTITLE10=Hampton)
TTITLE11=One Day - (With Lynda Randle)
TTITLE12=That's What Jesus Means To Me - (With Lynda Randle and Joy Rand
TTITLE12=le)
TTITLE13=Pray, Pray, Pray - (With Reggie and Lynda Love Smith)
TTITLE14=Look For Me At Jesus' Feet - (With The Booth Brothers)
TTITLE15=Oh What A Savior - (With Ernie Haase and Signature Sound)
TTITLE16=Center Of My Joy - (With Joy Gardner)
TTITLE17=Little Is Much When God Is In It - (With Gaither Vocal Band)
TTITLE18=Worthy The Lamb - (with Gaither Vocal Band)
EXTD=
EXTT0=
EXTT1=
EXTT2=
EXTT3=
EXTT4=
EXTT5=
EXTT6=
EXTT7=
EXTT8=
EXTT9=
EXTT10=
EXTT11=
EXTT12=
EXTT13=
EXTT14=
EXTT15=
EXTT16=
EXTT17=
EXTT18=
PLAYORDER=
